/* XPM */
static char * csd_play_xpm[] = {
"25 24 19 1",
" 	c None",
".	c #000000",
"+	c #4DAA4C",
"@	c #D2FFB5",
"#	c #A4F176",
"$	c #B8F398",
"%	c #CBFDAE",
"&	c #A0ED74",
"*	c #9CEA75",
"=	c #C1FD9B",
"-	c #95E46F",
";	c #93E36E",
">	c #8CDD6B",
",	c #3A7E39",
"'	c #A8F17F",
")	c #91DC75",
"!	c #82D566",
"~	c #85D56B",
"{	c #7BCF62",
"                         ",
"                         ",
"                         ",
"                         ",
"        ....             ",
"        .+++.            ",
"        .+@@+.           ",
"        .+@#$+.          ",
"        .+%&&$+.         ",
"        .+%***$+.        ",
"        .+=----$+.       ",
"        .+$;;;;;$+.      ",
"        .+$>>>>>>,.      ",
"        .+'>>>>>,.       ",
"        .+)!!!!,.        ",
"        .+)!!!,.         ",
"        .+~{{,.          ",
"        .+{{,.           ",
"        .+,,.            ",
"        ....             ",
"                         ",
"                         ",
"                         ",
"                         "};
