/* XPM */
static char * csd_scorc_xpm[] = {
"24 24 14 1",
" 	c None",
".	c #CC6600",
"+	c #663300",
"@	c #FFA200",
"#	c #FFA700",
"$	c #FFAB00",
"%	c #FFBA0C",
"&	c #FFC719",
"*	c #FFD92D",
"=	c #FFED46",
"-	c #FFFF66",
";	c #FFB300",
">	c #FFBC00",
",	c #FFC500",
"                        ",
"                        ",
"                        ",
"                        ",
"                        ",
"                        ",
"      ............      ",
"      +@#$%&**==-.      ",
"      +@#$;;>>,,-.      ",
"      +@#$;;>>,,-.      ",
"      +++++++++++.      ",
"                        ",
"                        ",
"      ............      ",
"      +@#$%&**==-.      ",
"      +@#$;;>>,,-.      ",
"      +@#$;;>>,,-.      ",
"      +++++++++++.      ",
"                        ",
"                        ",
"                        ",
"                        ",
"                        ",
"                        "};
