/* XPM */
static char * csd_process_xpm[] = {
"24 24 37 1",
" 	c None",
".	c #BA0C0C",
"+	c #FF5F55",
"@	c #FFA59F",
"#	c #FF817A",
"$	c #FF564E",
"%	c #FF4A42",
"&	c #FF3934",
"*	c #FF2D28",
"=	c #FF201D",
"-	c #FF5B52",
";	c #FF5047",
">	c #FF413B",
",	c #640000",
"'	c #FF0C0B",
")	c #FF322C",
"!	c #FF1412",
"~	c #1B9219",
"{	c #C4FF9F",
"]	c #035A01",
"^	c #8BED51",
"/	c #85E84D",
"(	c #7BE048",
"_	c #74DB45",
":	c #8EF052",
"<	c #7ADF48",
"[	c #71D844",
"}	c #68D03F",
"|	c #77DD47",
"1	c #6ED542",
"2	c #63CC3D",
"3	c #5DC73A",
"4	c #53BF35",
"5	c #34AA28",
"6	c #A8F47E",
"7	c #5EC83A",
"8	c #80E54B",
"                        ",
"                        ",
"                        ",
"                        ",
"          .....         ",
"        ..+@@#+..       ",
"    .. .+@@$%&*=+.      ",
"    .@.+@-;>,,,,''.     ",
"    .@+@$%&,    ,,,     ",
"    .@-;>),       ,,    ",
"    .@%&*,         ,    ",
"    .@)=!',  ~~~~~~~    ",
"    .,,,,,,  ~{{{{{]    ",
"    ~         ~^/(_]    ",
"    ]~       ~{:<[}]    ",
"     ]~~    ~{:|123]    ",
"     ]:4~~~5{:_12]4]    ",
"      ]:6{{6:[}7] ]]    ",
"       ]]^8([2]]        ",
"         ]]]]]          ",
"                        ",
"                        ",
"                        ",
"                        "};
