/* XPM */
static char * csd_kill_xpm[] = {
"24 24 76 1",
" 	c None",
".	c #BA0C0C",
"+	c #FF5F55",
"@	c #FFA59F",
"#	c #FF817A",
"$	c #DF0524",
"%	c #DE0523",
"&	c #FF564E",
"*	c #FF4A42",
"=	c #FF3934",
"-	c #FF2D28",
";	c #FF201D",
">	c #DD0523",
",	c #F23A41",
"'	c #FF5B52",
")	c #FF5047",
"!	c #FF413B",
"~	c #640000",
"{	c #FB0B0D",
"]	c #E5061F",
"^	c #D6061E",
"/	c #DF0624",
"(	c #E7192E",
"_	c #F6383A",
":	c #BD031A",
"<	c #EB4555",
"[	c #E30A25",
"}	c #820109",
"|	c #FB9592",
"1	c #EB2030",
"2	c #D80422",
"3	c #FF322C",
"4	c #F6191E",
"5	c #E30621",
"6	c #DD0623",
"7	c #DC0623",
"8	c #C41722",
"9	c #AD2821",
"0	c #4C6E1B",
"a	c #CC041E",
"b	c #CCAD76",
"c	c #C4FF9F",
"d	c #035A01",
"e	c #1B9219",
"f	c #D2272A",
"g	c #9BAF42",
"h	c #7BE048",
"i	c #74DB45",
"j	c #D81226",
"k	c #8CA33B",
"l	c #68D03F",
"m	c #185104",
"n	c #B42321",
"o	c #95391F",
"p	c #DA2A36",
"q	c #D71125",
"r	c #967130",
"s	c #CC0C21",
"t	c #B32421",
"u	c #34AA28",
"v	c #95D84D",
"w	c #AE6532",
"x	c #D81125",
"y	c #DB0924",
"z	c #5B370F",
"A	c #DD122A",
"B	c #CAC080",
"C	c #A8F47E",
"D	c #8EF052",
"E	c #71D844",
"F	c #7E9734",
"G	c #D10A21",
"H	c #C30F1F",
"I	c #A0B245",
"J	c #80E54B",
"K	c #63CC3D",
"                        ",
"                        ",
"                        ",
"                        ",
"          .....         ",
"        ..+@@#+..       ",
"   $%% .+@@&*=-;+. $    ",
"   $$$>,@')!~~~~{]$$$   ",
"    ^/$$(_=~    :$$$$   ",
"    .<$$$[}    $$$$$$   ",
"    .|1$$$$$ $$$$$$2    ",
"    .@345$$$$6$$7890    ",
"    .~~~}a$$$$$$bccd    ",
"    e   $$$$$$$fghid    ",
"    de $$$$$$$$$jkld    ",
"     mn$$$$ op$$$qrd    ",
"     s$$$$tucvwx$$yz    ",
"    $$$$$ABCDElFG$$$$   ",
"    $$$$HIJhEKdd $$$$   ",
"     $$  ddddd    $$$$  ",
"                   $$$  ",
"                        ",
"                        ",
"                        "};
